<svg xmlns="http://www.w3.org/2000/svg" width="512" height="512"><g><title>background</title><rect id="canvas_background" width="582" height="402" x="-1" y="-1" fill="none"/></g><g><title>Layer 1</title><path id="svg_2" fill="#ffde83" d="m85.4,247.32c1.36,66.6 22.1,121.77 58.76,155.9c2.83,2.63 2.99,7.06 0.36,9.89c-0.26,0.28 -0.56,0.53 -0.86,0.76c-0.13,0.1 -0.26,0.21 -0.4,0.3c-0.14,0.09 -0.29,0.16 -0.44,0.24c0.01,0.02 0.02,0.03 0.03,0.05c1.99,2.79 5.05,6.84 8.49,10.55l152.3,0c54.85,-27.85 88.14,-93.82 89.89,-177.69l-308.13,0zm222.59,81.35c-0.86,3.77 -4.61,6.13 -8.38,5.27c-0.08,-0.02 -0.15,-0.05 -0.22,-0.07c-0.92,2.35 -2.21,5.41 -3.9,8.89c0.11,0.06 0.22,0.12 0.32,0.19c0.39,0.26 0.74,0.55 1.07,0.87c0.32,0.33 0.61,0.68 0.87,1.07c0.25,0.38 0.47,0.78 0.64,1.21c0.18,0.42 0.31,0.86 0.4,1.31c0.09,0.45 0.14,0.91 0.14,1.36c0,0.46 -0.05,0.92 -0.14,1.37c-0.09,0.45 -0.22,0.89 -0.4,1.31c-0.17,0.42 -0.39,0.83 -0.64,1.21c-0.26,0.38 -0.55,0.74 -0.87,1.06c-1.31,1.31 -3.11,2.05 -4.95,2.05c-0.46,0 -0.92,-0.04 -1.37,-0.13c-0.45,-0.09 -0.89,-0.23 -1.31,-0.4c-0.19,-0.08 -0.38,-0.17 -0.57,-0.27c-1.75,2.73 -3.69,5.5 -5.84,8.22c2.32,2.61 2.38,6.6 0.01,9.28c-4.14,4.67 -8.82,9.48 -13.92,14.27c-0.15,0.14 -0.29,0.27 -0.43,0.39c-0.33,0.3 -0.69,0.6 -1.04,0.89l-0.29,0.24c-0.61,0.52 -1.21,1.02 -1.83,1.49c-0.49,0.37 -0.99,0.71 -1.49,1.06l-0.12,0.07c-0.63,0.44 -1.27,0.86 -1.93,1.26c-0.53,0.32 -1.08,0.63 -1.62,0.93c-0.7,0.38 -1.41,0.74 -2.12,1.08c-0.53,0.25 -1.06,0.49 -1.6,0.72c-0.69,0.3 -1.43,0.58 -2.32,0.9l-0.23,0.08c-0.43,0.16 -0.87,0.31 -1.3,0.45c-0.96,0.3 -1.88,0.53 -2.57,0.7l-0.29,0.07c-0.37,0.1 -0.74,0.19 -1.12,0.27c-1.05,0.22 -2.05,0.37 -2.89,0.49l-0.22,0.03c-0.31,0.05 -0.62,0.1 -0.93,0.14c-1.4,0.15 -2.71,0.24 -3.99,0.26l-0.68,0c-1.09,0 -2.26,-0.05 -3.51,-0.15c-0.29,-0.03 -0.6,-0.06 -0.91,-0.11l-0.21,-0.02c-0.86,-0.1 -1.87,-0.22 -2.94,-0.41c-0.36,-0.07 -0.74,-0.15 -1.11,-0.24l-0.3,-0.06c-1.01,-0.22 -1.81,-0.42 -2.59,-0.63c-0.45,-0.13 -0.9,-0.28 -1.35,-0.42l-0.17,-0.06c-0.88,-0.28 -1.66,-0.56 -2.38,-0.85c-0.54,-0.21 -1.07,-0.43 -1.59,-0.66c-0.71,-0.31 -1.45,-0.66 -2.18,-1.04c-0.54,-0.27 -1.08,-0.56 -1.62,-0.87c-0.68,-0.38 -1.34,-0.79 -2,-1.21l-0.09,-0.06c-0.51,-0.33 -1.02,-0.66 -1.52,-1.01c-0.62,-0.45 -1.23,-0.93 -1.84,-1.42l-0.34,-0.26c-0.36,-0.28 -0.71,-0.56 -1.05,-0.86c-0.16,-0.12 -0.31,-0.24 -0.45,-0.37c-27.88,-24.82 -42.17,-48.35 -42.48,-69.93c-0.33,-23.34 18.39,-42.59 41.72,-42.92c10.34,-0.13 20.17,3.43 27.9,9.99c7.54,-6.77 17.25,-10.62 27.6,-10.77c11.31,-0.19 21.99,4.09 30.1,11.97c8.1,7.88 12.66,18.45 12.81,29.75c0.06,4.24 -0.42,8.62 -1.43,13.03z" class="st2"/><path id="svg_3" fill="#c5bdd3" d="m378.39,439.01c-15.23,4.19 -33.09,7.69 -52.76,10.29c-3.23,0.43 -5.93,2.44 -7.33,5.19l-29.82,0c-3.7,0 -6.72,2.87 -6.97,6.5c-0.02,0.17 -0.03,0.33 -0.03,0.5s0.01,0.33 0.03,0.5l-10.12,0c0.01,-0.17 0.02,-0.33 0.02,-0.5s-0.01,-0.33 -0.02,-0.5c-0.02,-0.29 -0.06,-0.58 -0.12,-0.87c-0.09,-0.44 -0.22,-0.88 -0.39,-1.31c-0.18,-0.42 -0.4,-0.83 -0.65,-1.2c-0.25,-0.39 -0.55,-0.75 -0.87,-1.07c-0.32,-0.32 -0.68,-0.61 -1.06,-0.87c-0.38,-0.25 -0.79,-0.47 -1.21,-0.64c-0.42,-0.18 -0.86,-0.31 -1.31,-0.4c-0.9,-0.18 -1.83,-0.18 -2.74,0c-0.44,0.09 -0.88,0.22 -1.3,0.4c-0.43,0.17 -0.83,0.39 -1.21,0.64c-0.39,0.26 -0.74,0.55 -1.07,0.87c-0.32,0.32 -0.61,0.68 -0.87,1.07c-0.25,0.37 -0.47,0.78 -0.64,1.2c-0.18,0.43 -0.31,0.87 -0.4,1.31c-0.06,0.29 -0.09,0.58 -0.11,0.87c-0.02,0.17 -0.03,0.33 -0.03,0.5l-7.64,0l0,-0.04c0,-0.16 -0.01,-0.31 -0.03,-0.46c-0.25,-3.63 -3.28,-6.49 -6.97,-6.49l-0.05,0l-76.26,-0.01c-1.41,-2.75 -4.1,-4.76 -7.33,-5.19c-19.68,-2.6 -37.53,-6.1 -52.77,-10.29l272.03,0z" class="st12"/><path id="svg_4" fill="#48446d" d="m447.52,294.12c-4.87,-11.49 -15.39,-19.61 -26.8,-20.68c-5.22,-0.5 -10.42,0.59 -15.06,2.86c1.27,-11.69 1.94,-23.71 1.94,-35.98c0,-3.87 -3.13,-7 -7,-7l-322.27,0c-3.86,0 -7,3.13 -7,7c0,73.66 22.48,135.15 63.29,173.14c2.29,2.13 5.61,2.42 8.2,0.95c0.15,-0.08 0.3,-0.15 0.44,-0.24c0.14,-0.09 0.27,-0.2 0.4,-0.3c0.3,-0.23 0.6,-0.48 0.86,-0.76c2.63,-2.83 2.47,-7.26 -0.36,-9.89c-36.66,-34.13 -57.4,-89.3 -58.76,-155.9l308.13,0c-1.75,83.87 -35.04,149.84 -89.89,177.69l-235.39,0c-3.2,0 -6,2.17 -6.78,5.28c-0.79,3.1 0.63,6.34 3.44,7.87c19.63,10.65 51.31,19.36 89.44,24.62c1.5,3.36 4.88,5.71 8.8,5.71l77.56,0l1.67,0.01l0.45,0c3.68,-0.03 6.67,-2.9 6.92,-6.51c0.01,-0.17 0.02,-0.33 0.02,-0.5l0,-0.04c0,-0.16 -0.01,-0.31 -0.03,-0.46c-0.25,-3.63 -3.28,-6.49 -6.97,-6.49l-0.05,0l-76.26,-0.01c-1.41,-2.75 -4.1,-4.76 -7.33,-5.19c-19.68,-2.6 -37.53,-6.1 -52.77,-10.29l272.03,0c-15.23,4.19 -33.09,7.69 -52.76,10.29c-3.23,0.43 -5.93,2.44 -7.33,5.19l-29.82,0c-3.7,0 -6.72,2.87 -6.97,6.5c-0.02,0.17 -0.03,0.33 -0.03,0.5s0.01,0.33 0.03,0.5c0.25,3.63 3.27,6.5 6.97,6.5l33.13,0c3.91,0 7.29,-2.35 8.8,-5.71c38.12,-5.26 69.8,-13.97 89.43,-24.62c2.82,-1.53 4.24,-4.77 3.45,-7.87c-0.79,-3.11 -3.58,-5.28 -6.79,-5.28l-86.24,0c9.51,-6.96 18.29,-15.11 26.25,-24.34c1.32,2.71 3.28,5.12 5.76,6.92c2.83,2.06 6.01,3.12 9.22,3.12c1.12,0 2.26,-0.13 3.38,-0.39c3.76,-0.9 6.08,-4.68 5.18,-8.44c-0.89,-3.76 -4.67,-6.08 -8.43,-5.18c-0.24,0.06 -0.68,-0.11 -1.12,-0.43c-0.98,-0.71 -1.73,-1.98 -1.82,-3.07c-0.22,-2.8 1.59,-6.31 4.86,-9.4c6.45,-6.11 15.42,-9.15 24.93,-12.37c6.72,-2.28 13.66,-4.63 20.16,-8.23c14.22,-7.87 25.07,-21.31 29.75,-36.88c3.42,-11.37 3.11,-22.81 -0.86,-32.2zm-12.55,28.17c-3.64,12.09 -12.07,22.54 -23.12,28.66c-5.4,2.99 -11.46,5.04 -17.88,7.22c-4.13,1.4 -8.32,2.82 -12.41,4.53c0.44,-0.89 0.89,-1.78 1.32,-2.68c5.63,-11.73 10.32,-24.41 14.06,-37.83c3.02,3.32 6.77,5.97 11.05,7.54c3.63,1.33 7.65,-0.54 8.98,-4.17c1.33,-3.63 -0.53,-7.65 -4.16,-8.98c-6.64,-2.43 -11.1,-10.61 -9.54,-17.51c1.56,-6.89 9.09,-12.36 16.14,-11.7c6.26,0.59 12.37,5.5 15.21,12.22c2.71,6.38 2.84,14.45 0.35,22.7z" class="st6"/><path id="svg_5" fill="#48446d" d="m271.41,461.49c0,0.17 -0.01,0.33 -0.02,0.5c-0.02,0.29 -0.06,0.58 -0.12,0.87c-0.09,0.45 -0.22,0.89 -0.39,1.31c-0.18,0.42 -0.4,0.83 -0.65,1.21c-0.25,0.38 -0.55,0.74 -0.87,1.06c-0.32,0.32 -0.68,0.62 -1.06,0.87c-0.38,0.25 -0.79,0.47 -1.21,0.65c-0.42,0.17 -0.86,0.31 -1.31,0.4c-0.45,0.09 -0.91,0.13 -1.37,0.13c-1.84,0 -3.64,-0.75 -4.95,-2.05c-0.32,-0.32 -0.61,-0.68 -0.87,-1.06c-0.25,-0.38 -0.47,-0.79 -0.64,-1.21c-0.18,-0.42 -0.31,-0.86 -0.4,-1.31c-0.06,-0.29 -0.09,-0.58 -0.11,-0.87c-0.02,-0.17 -0.03,-0.33 -0.03,-0.5s0.01,-0.33 0.03,-0.5c0.02,-0.29 0.05,-0.58 0.11,-0.87c0.09,-0.44 0.22,-0.88 0.4,-1.31c0.17,-0.42 0.39,-0.83 0.64,-1.2c0.26,-0.39 0.55,-0.75 0.87,-1.07c0.33,-0.32 0.68,-0.61 1.07,-0.87c0.38,-0.25 0.78,-0.47 1.21,-0.64c0.42,-0.18 0.86,-0.31 1.3,-0.4c0.91,-0.18 1.84,-0.18 2.74,0c0.45,0.09 0.89,0.22 1.31,0.4c0.42,0.17 0.83,0.39 1.21,0.64c0.38,0.26 0.74,0.55 1.06,0.87c0.32,0.32 0.62,0.68 0.87,1.07c0.25,0.37 0.47,0.78 0.65,1.2c0.17,0.43 0.3,0.87 0.39,1.31c0.06,0.29 0.1,0.58 0.12,0.87c0.01,0.17 0.02,0.33 0.02,0.5z" class="st6"/><path id="svg_6" fill="#48446d" d="m309.42,315.64c0.06,4.24 -0.42,8.62 -1.43,13.03c-0.86,3.77 -4.61,6.13 -8.38,5.27c-0.08,-0.02 -0.15,-0.05 -0.22,-0.07c-0.33,-0.08 -0.65,-0.19 -0.95,-0.32c-3.07,-1.3 -4.86,-4.64 -4.09,-8c0.76,-3.32 1.12,-6.59 1.08,-9.71c-0.11,-7.57 -3.16,-14.64 -8.58,-19.91c-5.43,-5.27 -12.59,-8.1 -20.14,-8.01c-8.72,0.12 -16.78,4.19 -22.1,11.15c-1.3,1.7 -3.32,2.72 -5.46,2.75l-0.1,0c-2.11,0 -4.11,-0.95 -5.44,-2.6c-5.52,-6.81 -13.69,-10.66 -22.4,-10.52c-15.61,0.22 -28.14,13.1 -27.92,28.72c0.25,17.46 12.92,37.5 37.67,59.56c0.11,0.1 0.23,0.19 0.33,0.28c0.22,0.19 0.43,0.35 0.64,0.52l0.37,0.29c0.44,0.35 0.84,0.68 1.26,0.97c0.32,0.23 0.64,0.43 0.96,0.64l0.11,0.07c0.45,0.29 0.89,0.56 1.34,0.82c0.36,0.2 0.72,0.39 1.08,0.57c0.48,0.25 0.97,0.48 1.46,0.7c0.35,0.16 0.7,0.3 1.06,0.45c0.52,0.2 1.05,0.38 1.59,0.56l0.18,0.06c0.27,0.09 0.54,0.18 0.82,0.25c0.48,0.14 1.01,0.27 1.74,0.42l0.44,0.1c0.17,0.04 0.33,0.08 0.49,0.11c0.67,0.12 1.37,0.2 1.98,0.27c0.18,0.02 0.37,0.05 0.56,0.07l0.21,0.03c0.94,0.08 1.8,0.11 2.64,0.1l0.19,0c0.77,-0.01 1.66,-0.07 2.64,-0.18l0.2,-0.03c0.19,-0.03 0.38,-0.06 0.57,-0.09c0.6,-0.08 1.3,-0.19 1.94,-0.32c0.18,-0.04 0.34,-0.08 0.5,-0.13l0.43,-0.1c0.51,-0.13 1.14,-0.29 1.72,-0.47c0.28,-0.09 0.54,-0.18 0.8,-0.27l0.24,-0.09c0.5,-0.18 1.02,-0.37 1.54,-0.59c0.36,-0.16 0.71,-0.32 1.06,-0.49c0.48,-0.22 0.95,-0.46 1.41,-0.72c0.38,-0.2 0.74,-0.4 1.09,-0.62c0.44,-0.26 0.87,-0.55 1.29,-0.84l0.12,-0.08c0.32,-0.22 0.64,-0.43 0.95,-0.67c0.41,-0.31 0.81,-0.65 1.21,-0.99l0.38,-0.31c0.2,-0.17 0.41,-0.34 0.61,-0.53c0.13,-0.12 0.24,-0.21 0.35,-0.31c4.73,-4.46 9.08,-8.92 12.91,-13.24c2.52,-2.85 6.86,-3.15 9.75,-0.7c0.04,0.03 0.09,0.06 0.13,0.1c0.21,0.19 0.41,0.39 0.59,0.6c2.32,2.61 2.38,6.6 0.01,9.28c-4.14,4.67 -8.82,9.48 -13.92,14.27c-0.15,0.14 -0.29,0.27 -0.43,0.39c-0.33,0.3 -0.69,0.6 -1.04,0.89l-0.29,0.24c-0.61,0.52 -1.21,1.02 -1.83,1.49c-0.49,0.37 -0.99,0.71 -1.49,1.06l-0.12,0.07c-0.63,0.44 -1.27,0.86 -1.93,1.26c-0.53,0.32 -1.08,0.63 -1.62,0.93c-0.7,0.38 -1.41,0.74 -2.12,1.08c-0.53,0.25 -1.06,0.49 -1.6,0.72c-0.69,0.3 -1.43,0.58 -2.32,0.9l-0.23,0.08c-0.43,0.16 -0.87,0.31 -1.3,0.45c-0.96,0.3 -1.88,0.53 -2.57,0.7l-0.29,0.07c-0.37,0.1 -0.74,0.19 -1.12,0.27c-1.05,0.22 -2.05,0.37 -2.89,0.49l-0.22,0.03c-0.31,0.05 -0.62,0.1 -0.93,0.14c-1.4,0.15 -2.71,0.24 -3.99,0.26l-0.68,0c-1.09,0 -2.26,-0.05 -3.51,-0.15c-0.29,-0.03 -0.6,-0.06 -0.91,-0.11l-0.21,-0.02c-0.86,-0.1 -1.87,-0.22 -2.94,-0.41c-0.36,-0.07 -0.74,-0.15 -1.11,-0.24l-0.3,-0.06c-1.01,-0.22 -1.81,-0.42 -2.59,-0.63c-0.45,-0.13 -0.9,-0.28 -1.35,-0.42l-0.17,-0.06c-0.88,-0.28 -1.66,-0.56 -2.38,-0.85c-0.54,-0.21 -1.07,-0.43 -1.59,-0.66c-0.71,-0.31 -1.45,-0.66 -2.18,-1.04c-0.54,-0.27 -1.08,-0.56 -1.62,-0.87c-0.68,-0.38 -1.34,-0.79 -2,-1.21l-0.09,-0.06c-0.51,-0.33 -1.02,-0.66 -1.52,-1.01c-0.62,-0.45 -1.23,-0.93 -1.84,-1.42l-0.34,-0.26c-0.36,-0.28 -0.71,-0.56 -1.05,-0.86c-0.16,-0.12 -0.31,-0.24 -0.45,-0.37c-27.88,-24.82 -42.17,-48.35 -42.48,-69.93c-0.33,-23.34 18.39,-42.59 41.72,-42.92c10.34,-0.13 20.17,3.43 27.9,9.99c7.54,-6.77 17.25,-10.62 27.6,-10.77c11.31,-0.19 21.99,4.09 30.1,11.97c8.1,7.88 12.66,18.45 12.81,29.75z" class="st6"/><path id="svg_8" fill="#f57070" d="m299.39,333.87c-0.92,2.35 -2.21,5.41 -3.9,8.89c-0.28,-0.17 -0.57,-0.32 -0.89,-0.45c-0.42,-0.18 -0.86,-0.31 -1.3,-0.4c-0.91,-0.18 -1.84,-0.18 -2.74,0c-0.45,0.09 -0.89,0.22 -1.31,0.4c-0.42,0.17 -0.83,0.39 -1.21,0.64c-0.38,0.26 -0.74,0.55 -1.06,0.87c-0.32,0.33 -0.62,0.68 -0.87,1.07c-0.26,0.38 -0.47,0.78 -0.65,1.21c-0.17,0.42 -0.31,0.86 -0.4,1.31c-0.09,0.45 -0.13,0.91 -0.13,1.36c0,0.46 0.04,0.92 0.13,1.37c0.09,0.45 0.23,0.89 0.4,1.31c0.18,0.42 0.39,0.83 0.65,1.21c0.25,0.38 0.55,0.74 0.87,1.06c0.26,0.27 0.55,0.5 0.85,0.72c0.07,0.05 0.14,0.1 0.21,0.15c0.2,0.14 0.42,0.26 0.64,0.38c-1.75,2.73 -3.69,5.5 -5.84,8.22c-0.18,-0.21 -0.38,-0.41 -0.59,-0.6c-0.04,-0.04 -0.09,-0.07 -0.13,-0.1c-2.89,-2.45 -7.23,-2.15 -9.75,0.7c-3.83,4.32 -8.18,8.78 -12.91,13.24c-0.11,0.1 -0.22,0.19 -0.35,0.31c-0.2,0.19 -0.41,0.36 -0.61,0.53l-0.38,0.31c-0.4,0.34 -0.8,0.68 -1.21,0.99c-0.31,0.24 -0.63,0.45 -0.95,0.67l-0.12,0.08c-0.42,0.29 -0.85,0.58 -1.29,0.84c-0.35,0.22 -0.71,0.42 -1.09,0.62c-0.46,0.26 -0.93,0.5 -1.41,0.72c-0.35,0.17 -0.7,0.33 -1.06,0.49c-0.52,0.22 -1.04,0.41 -1.54,0.59l-0.24,0.09c-0.26,0.09 -0.52,0.18 -0.8,0.27c-0.58,0.18 -1.21,0.34 -1.72,0.47l-0.43,0.1c-0.16,0.05 -0.32,0.09 -0.5,0.13c-0.64,0.13 -1.34,0.24 -1.94,0.32c-0.19,0.03 -0.38,0.06 -0.57,0.09l-0.2,0.03c-0.98,0.11 -1.87,0.17 -2.64,0.18l-0.19,0c-0.84,0.01 -1.7,-0.02 -2.64,-0.1l-0.21,-0.03c-0.19,-0.02 -0.38,-0.05 -0.56,-0.07c-0.61,-0.07 -1.31,-0.15 -1.98,-0.27c-0.16,-0.03 -0.32,-0.07 -0.49,-0.11l-0.44,-0.1c-0.73,-0.15 -1.26,-0.28 -1.74,-0.42c-0.28,-0.07 -0.55,-0.16 -0.82,-0.25l-0.18,-0.06c-0.54,-0.18 -1.07,-0.36 -1.59,-0.56c-0.36,-0.15 -0.71,-0.29 -1.06,-0.45c-0.49,-0.22 -0.98,-0.45 -1.46,-0.7c-0.36,-0.18 -0.72,-0.37 -1.08,-0.57c-0.45,-0.26 -0.89,-0.53 -1.34,-0.82l-0.11,-0.07c-0.32,-0.21 -0.64,-0.41 -0.96,-0.64c-0.42,-0.29 -0.82,-0.62 -1.26,-0.97l-0.37,-0.29c-0.21,-0.17 -0.42,-0.33 -0.64,-0.52c-0.1,-0.09 -0.22,-0.18 -0.33,-0.28c-24.75,-22.06 -37.42,-42.1 -37.67,-59.56c-0.22,-15.62 12.31,-28.5 27.92,-28.72c8.71,-0.14 16.88,3.71 22.4,10.52c1.33,1.65 3.33,2.6 5.44,2.6l0.1,0c2.14,-0.03 4.16,-1.05 5.46,-2.75c5.32,-6.96 13.38,-11.03 22.1,-11.15c7.55,-0.09 14.71,2.74 20.14,8.01c5.42,5.27 8.47,12.34 8.58,19.91c0.04,3.12 -0.32,6.39 -1.08,9.71c-0.77,3.36 1.02,6.7 4.09,8c0.3,0.13 0.62,0.24 0.95,0.32z" class="st3"/><path id="svg_9" fill="#48446d" d="m298.93,348.77c0,0.46 -0.05,0.92 -0.14,1.37c-0.09,0.45 -0.22,0.89 -0.4,1.31c-0.17,0.42 -0.39,0.83 -0.64,1.21c-0.26,0.38 -0.55,0.74 -0.87,1.06c-1.31,1.31 -3.11,2.05 -4.95,2.05c-0.46,0 -0.92,-0.04 -1.37,-0.13c-0.45,-0.09 -0.89,-0.23 -1.31,-0.4c-0.19,-0.08 -0.38,-0.17 -0.57,-0.27c-0.22,-0.12 -0.44,-0.24 -0.64,-0.38c-0.07,-0.05 -0.14,-0.1 -0.21,-0.15c-0.3,-0.22 -0.59,-0.45 -0.85,-0.72c-0.32,-0.32 -0.62,-0.68 -0.87,-1.06c-0.26,-0.38 -0.47,-0.79 -0.65,-1.21c-0.17,-0.42 -0.31,-0.86 -0.4,-1.31c-0.09,-0.45 -0.13,-0.91 -0.13,-1.37c0,-0.45 0.04,-0.91 0.13,-1.36c0.09,-0.45 0.23,-0.89 0.4,-1.31c0.18,-0.43 0.39,-0.83 0.65,-1.21c0.25,-0.39 0.55,-0.74 0.87,-1.07c0.32,-0.32 0.68,-0.61 1.06,-0.87c0.38,-0.25 0.79,-0.47 1.21,-0.64c0.42,-0.18 0.86,-0.31 1.31,-0.4c0.9,-0.18 1.83,-0.18 2.74,0c0.44,0.09 0.88,0.22 1.3,0.4c0.32,0.13 0.61,0.28 0.89,0.45c0.11,0.06 0.22,0.12 0.32,0.19c0.39,0.26 0.74,0.55 1.07,0.87c0.32,0.33 0.61,0.68 0.87,1.07c0.25,0.38 0.47,0.78 0.64,1.21c0.18,0.42 0.31,0.86 0.4,1.31c0.09,0.45 0.14,0.91 0.14,1.36z" class="st6"/></g></svg>