<?xml version="1.0" ?><svg viewBox="0 0 64 64" xmlns="http://www.w3.org/2000/svg"><defs><style>.cls-1{fill:#0072ff;}</style></defs><title/><g data-name="Layer 2" id="Layer_2"><path class="cls-1" d="M18.28,19.41a2,2,0,0,0,2.83,0,6.25,6.25,0,0,0,0-8.83,2.25,2.25,0,0,1,0-3.17,2,2,0,0,0-2.83-2.83,6.25,6.25,0,0,0,0,8.83,2.25,2.25,0,0,1,0,3.17A2,2,0,0,0,18.28,19.41Z"/><path class="cls-1" d="M26.59,19.41a2,2,0,0,0,2.83,0,6.25,6.25,0,0,0,0-8.83,2.25,2.25,0,0,1,0-3.17,2,2,0,0,0-2.83-2.83,6.25,6.25,0,0,0,0,8.83,2.25,2.25,0,0,1,0,3.17A2,2,0,0,0,26.59,19.41Z"/><path class="cls-1" d="M34.9,19.41a2,2,0,0,0,2.83,0,6.25,6.25,0,0,0,0-8.83,2.25,2.25,0,0,1,0-3.17A2,2,0,0,0,34.9,4.59a6.25,6.25,0,0,0,0,8.83,2.25,2.25,0,0,1,0,3.17A2,2,0,0,0,34.9,19.41Z"/><path class="cls-1" d="M51.72,24H6.11a2.2,2.2,0,0,0-2.06,1.54A2,2,0,0,0,6,28a2,2,0,0,1,2,2v9.52a20.72,20.72,0,0,0,3.07,10.85,3.49,3.49,0,0,0,3,1.63H26a2,2,0,0,1,0,4H6a2,2,0,0,0,0,4H50a2,2,0,0,0,0-4H42.53a.94.94,0,0,1-.67-1.62A19.9,19.9,0,0,0,48,40V30a2,2,0,0,1,2-2h1.82A4.12,4.12,0,0,1,56,31.6a4,4,0,0,1-3,4.27,1.29,1.29,0,0,0-1,1.22v1.32a1.31,1.31,0,0,0,1.46,1.45A8,8,0,0,0,60,31.18,8.19,8.19,0,0,0,51.72,24ZM36.28,40.48l-7,7a1.8,1.8,0,0,1-2.55,0l-6.84-6.84a5.18,5.18,0,0,1-.38-7.06,5,5,0,0,1,7.24-.19L28,34.67,29,33.62a5.18,5.18,0,0,1,7.06-.38A5,5,0,0,1,36.28,40.48Z"/></g></svg>